name rise36.2859peak64.2979fall75.1499.mot
datacolumns 19
datarows 20
range 19.27658900000000 19.30825900000000
endheader
time	ground_force1_vx	ground_force1_vy	ground_force1_vz	ground_force1_px	ground_force1_py	ground_force1_pz	ground_force2_vx	ground_force2_vy	ground_force2_vz	ground_force2_px	ground_force2_py	ground_force2_pz	ground_torque1_x	ground_torque1_y	ground_torque1_z	ground_torque2_x	ground_torque2_y	ground_torque2_z	
19.27658900000000	-9.14713300000000	43.17428600000000	-13.68561400000000	0.29715500000000	0.00000000000000	0.07427200000000	-49.84189800000000	764.66358300000002	-51.92410300000000	0.18274600000000	0.00000000000000	-0.12199500000000	0.00000000000000	-9.98744700000000	0.00000000000000	0.00000000000000	-28.33363200000000	0.00000000000000	
19.27826100000000	-10.00561600000000	50.58768900000000	-15.36250400000000	0.30407600000000	0.00000000000000	0.07555600000000	-50.38655800000000	762.04892099999995	-51.53424300000000	0.18151000000000	0.00000000000000	-0.12194100000000	0.00000000000000	-11.33717400000000	0.00000000000000	0.00000000000000	-28.24201400000000	0.00000000000000	
19.27992200000000	-10.68694100000000	58.09150200000000	-16.87820500000000	0.31057700000000	0.00000000000000	0.07670300000000	-50.93828000000000	759.36487699999998	-51.13275600000000	0.18028100000000	0.00000000000000	-0.12188300000000	0.00000000000000	-12.59227600000000	0.00000000000000	0.00000000000000	-28.15067100000000	0.00000000000000	
19.28159400000000	-11.16741900000000	65.58923000000000	-18.19717500000000	0.31671300000000	0.00000000000000	0.07773600000000	-51.49686100000000	756.61011099999996	-50.71961800000000	0.17906000000000	0.00000000000000	-0.12182100000000	0.00000000000000	-13.72314000000000	0.00000000000000	0.00000000000000	-28.05964500000000	0.00000000000000	
19.28326200000000	-11.43382900000000	73.00815100000000	-19.29635000000000	0.32253100000000	0.00000000000000	0.07867100000000	-52.06206200000000	753.78317400000003	-50.29479100000000	0.17784900000000	0.00000000000000	-0.12175500000000	0.00000000000000	-14.70889600000000	0.00000000000000	0.00000000000000	-27.96896100000000	0.00000000000000	
19.28492900000000	-11.48319100000000	80.30153400000000	-20.16524300000000	0.32806600000000	0.00000000000000	0.07952200000000	-52.63359700000000	750.88251300000002	-49.85822200000000	0.17664900000000	0.00000000000000	-0.12168400000000	0.00000000000000	-15.53783200000000	0.00000000000000	0.00000000000000	-27.87862800000000	0.00000000000000	
19.28659600000000	-11.32174600000000	87.44835000000000	-20.80501000000000	0.33334900000000	0.00000000000000	0.08030100000000	-53.21113500000000	747.90647200000001	-49.40984600000000	0.17546300000000	0.00000000000000	-0.12160900000000	0.00000000000000	-16.20700200000000	0.00000000000000	0.00000000000000	-27.78863800000000	0.00000000000000	
19.28825900000000	-10.96334700000000	94.45089500000000	-21.22671500000000	0.33840700000000	0.00000000000000	0.08101700000000	-53.79429900000000	744.85329600000000	-48.94958500000000	0.17429200000000	0.00000000000000	-0.12152900000000	0.00000000000000	-16.72117900000000	0.00000000000000	0.00000000000000	-27.69896600000000	0.00000000000000	
19.28993000000000	-10.42749800000000	101.33091100000000	-21.44907700000000	0.34326000000000	0.00000000000000	0.08167700000000	-54.38266100000000	741.72113999999999	-48.47734800000000	0.17313700000000	0.00000000000000	-0.12144500000000	0.00000000000000	-17.09134300000000	0.00000000000000	0.00000000000000	-27.60956800000000	0.00000000000000	
19.29158900000000	-9.73727600000000	108.12475999999999	-21.49598200000000	0.34792700000000	0.00000000000000	0.08228900000000	-54.97574400000000	738.50806899999998	-47.99303500000000	0.17200000000000	0.00000000000000	-0.12135600000000	0.00000000000000	-17.33292200000000	0.00000000000000	0.00000000000000	-27.52038500000000	0.00000000000000	
19.29326400000000	-8.91730400000000	114.87823299999999	-21.39400900000000	0.35242300000000	0.00000000000000	0.08285700000000	-55.57301700000000	735.21206700000005	-47.49653800000000	0.17088300000000	0.00000000000000	-0.12126200000000	0.00000000000000	-17.46395600000000	0.00000000000000	0.00000000000000	-27.43133600000000	0.00000000000000	
19.29493000000000	-7.99195100000000	121.64147500000000	-21.17015300000000	0.35676200000000	0.00000000000000	0.08338800000000	-56.17389600000000	731.83104300000002	-46.98774100000000	0.16978700000000	0.00000000000000	-0.12116300000000	0.00000000000000	-17.50336900000000	0.00000000000000	0.00000000000000	-27.34232500000000	0.00000000000000	
19.29659400000000	-6.98385700000000	128.46440799999999	-20.84991000000000	0.36095500000000	0.00000000000000	0.08388400000000	-56.77774100000000	728.36284000000001	-46.46652300000000	0.16871400000000	0.00000000000000	-0.12105800000000	0.00000000000000	-17.46944500000000	0.00000000000000	0.00000000000000	-27.25323600000000	0.00000000000000	
19.29825900000000	-5.91283500000000	135.39292499999999	-20.45580500000000	0.36501300000000	0.00000000000000	0.08434800000000	-57.38385700000000	724.80523900000003	-45.93276000000000	0.16766600000000	0.00000000000000	-0.12094900000000	0.00000000000000	-17.37862300000000	0.00000000000000	0.00000000000000	-27.16393300000000	0.00000000000000	
19.29992700000000	-4.79518100000000	142.46602100000001	-20.00639800000000	0.36894400000000	0.00000000000000	0.08478500000000	-57.99149200000000	721.15596900000003	-45.38632600000000	0.16664300000000	0.00000000000000	-0.12083400000000	0.00000000000000	-17.24462700000000	0.00000000000000	0.00000000000000	-27.07426600000000	0.00000000000000	
19.30159800000000	-3.64336100000000	149.71390299999999	-19.51576100000000	0.37275600000000	0.00000000000000	0.08519700000000	-58.59983300000000	717.41271400000005	-44.82709700000000	0.16564800000000	0.00000000000000	-0.12071400000000	0.00000000000000	-17.07796100000000	0.00000000000000	0.00000000000000	-26.98406100000000	0.00000000000000	
19.30326200000000	-2.46604600000000	157.15705399999999	-18.99339000000000	0.37645500000000	0.00000000000000	0.08558500000000	-59.20801300000000	713.57312700000000	-44.25494900000000	0.16468100000000	0.00000000000000	-0.12058800000000	0.00000000000000	-16.88573000000000	0.00000000000000	0.00000000000000	-26.89313100000000	0.00000000000000	
19.30492400000000	-1.26840700000000	164.80615100000000	-18.44446300000000	0.38004800000000	0.00000000000000	0.08595200000000	-59.81510300000000	709.63483199999996	-43.66976700000000	0.16374500000000	0.00000000000000	-0.12045700000000	0.00000000000000	-16.67175400000000	0.00000000000000	0.00000000000000	-26.80126700000000	0.00000000000000	
19.30659000000000	-0.05262700000000	172.66267400000001	-17.87037800000000	0.38354000000000	0.00000000000000	0.08629900000000	-60.42011400000000	705.59543699999995	-43.07144000000000	0.16284000000000	0.00000000000000	-0.12032000000000	0.00000000000000	-16.43691100000000	0.00000000000000	0.00000000000000	-26.70824500000000	0.00000000000000	
19.30825900000000	1.18146800000000	180.72004999999999	-17.26947600000000	0.38693500000000	0.00000000000000	0.08662900000000	-61.02200300000000	701.45254599999998	-42.45987000000000	0.16196800000000	0.00000000000000	-0.12017700000000	0.00000000000000	-16.17963700000000	0.00000000000000	0.00000000000000	-26.61382400000000	0.00000000000000	
